<svg width="86" height="86" viewBox="0 0 86 86" fill="none" xmlns="http://www.w3.org/2000/svg">
  <circle cx="43" cy="43" r="43" fill="#F2F8FA"/>
  <path d="M26 31C26 29.3431 27.3431 28 29 28H37C38.6569 28 40 29.3431 40 31V55C40 56.6569 38.6569 58 37 58H29C27.3431 58 26 56.6569 26 55V31Z" stroke="#000" stroke-width="2"/>
  <path d="M46 31C46 29.3431 47.3431 28 49 28H57C58.6569 28 60 29.3431 60 31V37C60 38.6569 58.6569 40 57 40H49C47.3431 40 46 38.6569 46 37V31Z" stroke="#000" stroke-width="2"/>
  <path d="M46 49C46 47.3431 47.3431 46 49 46H57C58.6569 46 60 47.3431 60 49V55C60 56.6569 58.6569 58 57 58H49C47.3431 58 46 56.6569 46 55V49Z" stroke="#000" stroke-width="2"/>
</svg>
